<?xml version="1.0" encoding="utf-8"?>
<!-- Generator: Adobe Illustrator 16.0.0, SVG Export Plug-In . SVG Version: 6.00 Build 0)  -->
<!DOCTYPE svg PUBLIC "-//W3C//DTD SVG 1.1//EN" "http://www.w3.org/Graphics/SVG/1.1/DTD/svg11.dtd">
<svg version="1.1" xmlns="http://www.w3.org/2000/svg" xmlns:xlink="http://www.w3.org/1999/xlink" x="0px" y="0px" width="100px"
	 height="100px" viewBox="0 0 100 100" enable-background="new 0 0 100 100" xml:space="preserve">
<g id="Layer_2">
	<g id="XMLID_2_">
		<g>
			<polygon fill="#00FF00" points="66.06,38.88 69.91,42.77 47.58,64.94 34.15,51.96 38.12,48.06 47.55,57.3 			"/>
		</g>
		<g>
		</g>
	</g>
</g>
<g id="Layer_3">
	<g id="XMLID_3_">
		<g>
			<path fill="#00FF00" d="M51.56,14.29c19.9,0,36.021,16.13,36.021,36.02c0,19.9-16.12,36.021-36.021,36.021
				c-19.89,0-36.02-16.12-36.02-36.021C15.54,30.42,31.67,14.29,51.56,14.29z M81.69,50.31c0-16.64-13.49-30.12-30.131-30.12
				c-16.64,0-30.12,13.48-30.12,30.12c0,16.641,13.48,30.131,30.12,30.131C68.2,80.44,81.69,66.95,81.69,50.31z"/>
		</g>
		<g>
		</g>
	</g>
</g>
</svg>
