<?xml version="1.0" encoding="utf-8"?>
<!-- Generator: Adobe Illustrator 16.0.0, SVG Export Plug-In . SVG Version: 6.00 Build 0)  -->
<!DOCTYPE svg PUBLIC "-//W3C//DTD SVG 1.1//EN" "http://www.w3.org/Graphics/SVG/1.1/DTD/svg11.dtd">
<svg version="1.1" xmlns="http://www.w3.org/2000/svg" xmlns:xlink="http://www.w3.org/1999/xlink" x="0px" y="0px" width="100px"
	 height="100px" viewBox="0 0 100 100" enable-background="new 0 0 100 100" xml:space="preserve">
<g id="Layer_2">
	<polygon fill="#FF0000" points="38.583,35.5 47.333,50 38.583,64.667 44.333,64.667 50,54.834 55.667,64.667 61.5,64.667 
		53.25,50.084 61.5,35.5 55.5,35.5 50.042,45.083 44.5,35.5 	"/>
</g>
<g id="Layer_3">
	<g id="XMLID_1_">
		<g>
			<path fill="#FF0000" d="M50,13.94c19.92,0,36.06,16.14,36.06,36.06S69.92,86.06,50,86.06S13.94,69.92,13.94,50
				S30.08,13.94,50,13.94z M80,50c0-16.57-13.43-30-30-30c-16.57,0-30,13.43-30,30c0,16.57,13.43,30,30,30C66.57,80,80,66.57,80,50z
				"/>
		</g>
		<g>
		</g>
	</g>
</g>
</svg>
